<svg width="58" height="50" viewBox="0 0 58 50" fill="none" xmlns="http://www.w3.org/2000/svg">
<path d="M58 0H29.4829H28.5083H0L14.2586 24.5804L29 50L43.7414 24.5804L58 0ZM43.5658 22.9458V8.85489L55.8226 1.80944L43.5658 22.9458ZM55.3309 0.97028L43.0742 8.01573L30.8174 0.97028H55.3309ZM29.4829 1.32867L42.5825 8.86364V23.9248L29.4829 16.3899V1.32867ZM28.5083 16.3899L15.4087 23.9248V8.86364L28.5083 1.32867V16.3899ZM27.1826 0.97028L14.917 8.01573L2.66031 0.97028H27.1826ZM14.4342 8.85489V22.9458L2.17741 1.80944L14.4342 8.85489ZM16.2516 26.0927L28.5083 33.1381V47.229L16.2516 26.0927ZM29.4829 47.229V33.1381L41.7396 26.0927L29.4829 47.229ZM29 32.2902L15.8916 24.764L28.9912 17.229L30.2731 17.972L42.0908 24.764L29 32.2902Z" fill="white"/>
</svg>
